<?xml version="1.0" encoding="utf-8"?>
<!-- Generator: Adobe Illustrator 23.0.1, SVG Export Plug-In . SVG Version: 6.00 Build 0)  -->
<svg version="1.1" id="Layer_1" xmlns="http://www.w3.org/2000/svg" xmlns:xlink="http://www.w3.org/1999/xlink" x="0px" y="0px"
	 viewBox="0 0 24 24" style="enable-background:new 0 0 24 24;" xml:space="preserve">
<style type="text/css">
	.st0{fill:#FFFFFF;}
</style>
<g>
	<path class="st0" d="M19.2,22.5H4.8c-1.8,0-3.3-1.5-3.3-3.3V4.8C1.5,3,3,1.5,4.8,1.5h3.3c0.5,0,0.9,0.4,0.9,0.9S8.7,3.4,8.1,3.4
		H4.8C4,3.4,3.4,4,3.4,4.8v14.4c0,0.8,0.6,1.4,1.4,1.4h14.4c0.8,0,1.4-0.6,1.4-1.4V4.8c0-0.8-0.6-1.4-1.4-1.4h-4.9
		c-0.7,0-1.3,0.6-1.3,1.3v10c0,0.5-0.4,0.9-0.9,0.9s-0.9-0.4-0.9-0.9v-10c0-1.8,1.4-3.2,3.2-3.2h4.9c1.8,0,3.3,1.5,3.3,3.3v14.4
		C22.5,21,21,22.5,19.2,22.5z"/>
</g>
<g>
	<path class="st0" d="M12,15.6c-0.4,0-0.8-0.2-1.1-0.5L7,11.3c-0.4-0.4-0.4-1,0-1.3c0.4-0.4,1-0.4,1.3,0l3.6,3.6l3.6-3.6
		c0.4-0.4,1-0.4,1.3,0s0.4,1,0,1.3l-3.9,3.9C12.8,15.5,12.4,15.6,12,15.6z"/>
</g>
</svg>
